<svg viewBox="0 0 96 96" xmlns="http://www.w3.org/2000/svg" xmlns:xlink="http://www.w3.org/1999/xlink" id="Icons_PostitNotes" overflow="hidden"><style>
.MsftOfcThm_Background1_Fill {
 fill:#FFFFFF; 
}
</style>
<path d="M78.951 31.757C79.4082 33.0458 79.6832 34.3921 79.768 35.757L84 35.757 84 59C83.9967 62.3123 81.3123 64.9967 78 65L67.179 65 67.07 77.054C67.0312 80.3427 64.3589 82.9909 61.07 83L35 83 35 35.757 51.05 35.757C49.7563 34.5253 48.5681 33.1873 47.498 31.757L31 31.757 31 75.348 11.48 69.648 25.46 21.748 46.69 27.948 46.918 27.462C47.4381 26.364 48.1067 25.3428 48.905 24.427L22.741 16.79 6.52 72.37 31 79.515 31 87 62.534 87C67.2098 86.9914 71.6774 85.0656 74.894 81.672L83.359 72.709C86.3454 69.557 88.0069 65.3781 88 61.036L88 31.757ZM80.451 69.962 71.985 78.926C71.5315 79.3978 71.0427 79.8344 70.523 80.232 70.8747 79.221 71.0594 78.1594 71.07 77.089L71.144 69 78 69C79.3075 69.0002 80.6022 68.7427 81.81 68.242 81.4058 68.8522 80.9512 69.4276 80.451 69.962Z" class="MsftOfcThm_Background1_Fill" fill="#FFFFFF"/><path d="M59.071 36.8 55.938 43.492C55.3253 44.7293 55.8317 46.2291 57.0691 46.8417 58.3064 47.4544 59.8061 46.948 60.4188 45.7107 60.4349 45.6781 60.4503 45.6452 60.465 45.612L63.6 38.921C67.1818 40.2299 70.9923 40.7967 74.8 40.587L74.938 40.579C76.3606 37.275 75.9828 33.4715 73.938 30.512L76.993 20.161 79.542 19.772C80.417 19.6386 81.128 18.9961 81.349 18.139L81.941 15.848C82.1754 14.9331 81.8051 13.9701 81.018 13.448 76.8224 10.6843 72.2481 8.54366 67.438 7.093 66.5317 6.82068 65.5525 7.15365 65 7.922L63.621 9.844C63.1041 10.562 63.0648 11.519 63.521 12.277L64.855 14.484 58.913 23.484C55.33 23.807 52.1654 25.9511 50.537 29.159 52.8275 32.2643 55.7324 34.8653 59.071 36.8Z" class="MsftOfcThm_Background1_Fill" fill="#FFFFFF"/></svg>